<svg xmlns="http://www.w3.org/2000/svg" viewBox="0 0 413.18 78.72" width="413" height="79" role="img" aria-label="Bustan">
  <g transform="translate(0 0.00)">
    <rect width="78.72" height="78.72" rx="14.17" ry="14.17" fill="#4F46E5"/>
    <g transform="translate(8.22 53.58)" fill="#FBFBFB"><path d="M19.7051904 0.0Q9.786470399999999 0.0 5.5214208 -3.6038015999999997Q1.2563712 -7.207603199999999 1.2563712 -13.7539584Q1.2563712 -16.6634496 2.314368 -20.432563199999997Q3.3723647999999997 -24.201676799999998 6.0834816 -29.094911999999997L13.886208 -25.5902976Q12.8282112 -22.6146816 12.3653376 -20.5317504Q11.902464 -18.4488192 11.902464 -16.795699199999998Q11.902464 -14.216832 13.0265856 -12.8282112Q14.1507072 -11.4395904 16.1675136 -10.910592000000001Q18.18432 -10.3815936 20.829311999999998 -10.3815936H44.8326144L46.0889856 0.0ZM38.2201344 0.0V-10.3815936H49.8580992Q49.3291008 -12.6959616 47.8082304 -15.539328Q46.28736 -18.3826944 43.972992 -21.2921856L53.4949632 -31.012531199999998Q55.478707199999995 -27.243417599999997 56.9334528 -22.7469312Q58.3881984 -18.2504448 58.4212608 -12.6628992Q58.4543232 -7.0753536 56.0077056 0.0ZM38.2201344 -10.3815936H38.8813824V0.0H38.2201344Q36.2363904 0.0 36.2363904 -5.1577344Q36.2363904 -10.3815936 38.2201344 -10.3815936ZM30.2190336 17.7875712 23.2098048 10.712217599999999 29.8884096 3.7029888 36.831513599999994 10.712217599999999Z"/></g>
  </g>
  <g transform="translate(107.52 74.40)" fill="#FBFBFB"><path d="M34.752 0.96Q31.392 0.96 28.224 -0.04800000000000004Q25.056 -1.056 22.416 -2.7840000000000003Q19.776 -4.5120000000000005 18.048000000000002 -6.672000000000001Q16.32 -8.832 15.744 -11.040000000000001L18.528 -12.288L18.240000000000002 -0.28800000000000003H6.912V-71.04H18.624V-38.976L16.608 -39.84Q17.088 -42.144 18.72 -44.208Q20.352 -46.272 22.848 -47.952Q25.344 -49.632 28.32 -50.64Q31.296 -51.648 34.464 -51.648Q41.184 -51.648 46.416 -48.24Q51.648 -44.832 54.672 -38.928Q57.696 -33.024 57.696 -25.344Q57.696 -17.76 54.72 -11.808Q51.744 -5.856 46.512 -2.448Q41.28 0.96 34.752 0.96ZM32.352000000000004 -9.408Q36.384 -9.408 39.552 -11.472Q42.72 -13.536 44.544 -17.136Q46.368 -20.736 46.368 -25.344Q46.368 -30.048000000000002 44.592 -33.647999999999996Q42.816 -37.248 39.648 -39.263999999999996Q36.480000000000004 -41.28 32.352000000000004 -41.28Q28.128 -41.28 24.96 -39.263999999999996Q21.792 -37.248 19.968000000000004 -33.647999999999996Q18.144000000000002 -30.048000000000002 18.144000000000002 -25.344Q18.144000000000002 -20.736 19.968000000000004 -17.136Q21.792 -13.536 24.96 -11.472Q28.128 -9.408 32.352000000000004 -9.408Z M83.904 0.96Q78.432 0.96 74.44800000000001 -1.536Q70.464 -4.032 68.304 -8.544Q66.144 -13.056000000000001 66.144 -19.392V-50.592H77.856V-21.888Q77.856 -15.936 80.68799999999999 -12.48Q83.52 -9.024000000000001 88.608 -9.024000000000001Q91.104 -9.024000000000001 93.168 -9.84Q95.232 -10.656 96.768 -12.144Q98.304 -13.632 99.168 -15.744Q100.03200000000001 -17.856 100.03200000000001 -20.256V-50.592H111.744V0.0H100.32L100.128 -10.56L102.24000000000001 -11.712Q101.088 -8.16 98.352 -5.28Q95.616 -2.4 91.872 -0.72Q88.128 0.96 83.904 0.96Z M140.64000000000001 0.96Q134.01600000000002 0.96 128.68800000000002 -1.296Q123.36000000000001 -3.552 120.00000000000001 -7.776L127.584 -14.304Q130.464 -11.136000000000001 134.01600000000002 -9.648Q137.568 -8.16 141.50400000000002 -8.16Q143.13600000000002 -8.16 144.43200000000002 -8.544Q145.728 -8.928 146.688 -9.696000000000002Q147.648 -10.464 148.176 -11.52Q148.704 -12.576 148.704 -13.824Q148.704 -16.128 146.976 -17.472Q146.01600000000002 -18.048000000000002 144.0 -18.864Q141.984 -19.68 138.72 -20.448Q133.536 -21.792 130.032 -23.568Q126.528 -25.344 124.608 -27.552Q122.97600000000001 -29.472 122.20800000000001 -31.728Q121.44000000000001 -33.984 121.44000000000001 -36.768Q121.44000000000001 -41.088 123.98400000000001 -44.448Q126.528 -47.808 130.752 -49.728Q134.976 -51.648 140.16 -51.648Q144.0 -51.648 147.60000000000002 -50.688Q151.20000000000002 -49.728 154.272 -47.952Q157.344 -46.176 159.55200000000002 -43.68L153.024 -36.480000000000004Q151.296 -38.208 149.136 -39.599999999999994Q146.976 -40.992 144.768 -41.76Q142.56 -42.528 140.64000000000001 -42.528Q138.816 -42.528 137.376 -42.192Q135.936 -41.856 134.976 -41.184Q134.01600000000002 -40.512 133.488 -39.504000000000005Q132.96 -38.496 132.96 -37.248Q133.056 -36.0 133.584 -34.992000000000004Q134.11200000000002 -33.984 135.072 -33.312Q136.032 -32.64 138.144 -31.776Q140.256 -30.912 143.616 -30.144000000000002Q148.32 -28.896 151.488 -27.36Q154.656 -25.824 156.48000000000002 -23.808Q158.304 -22.080000000000002 159.072 -19.776000000000003Q159.84 -17.472 159.84 -14.592Q159.84 -10.08 157.296 -6.5760000000000005Q154.752 -3.072 150.43200000000002 -1.056Q146.11200000000002 0.96 140.64000000000001 0.96Z M173.856 0.0V-63.456H185.568V0.0ZM163.872 -39.648V-50.592H196.608V-39.648Z M232.608 0.0V-32.352000000000004Q232.608 -36.480000000000004 229.872 -38.832Q227.13600000000002 -41.184 222.816 -41.184Q218.78400000000002 -41.184 215.52 -39.599999999999994Q212.256 -38.016 209.472 -34.56L202.17600000000002 -41.856Q206.68800000000002 -46.656 212.16000000000003 -49.152Q217.632 -51.648 223.96800000000002 -51.648Q230.01600000000002 -51.648 234.38400000000001 -49.728Q238.752 -47.808 241.15200000000002 -44.016000000000005Q243.55200000000002 -40.224000000000004 243.55200000000002 -34.752V0.0ZM218.20800000000003 0.96Q213.312 0.96 209.472 -0.96Q205.632 -2.88 203.376 -6.288Q201.12 -9.696 201.12 -14.304Q201.12 -18.336000000000002 202.56 -21.36Q204.0 -24.384 206.832 -26.4Q209.66400000000002 -28.416 213.93600000000004 -29.424Q218.20800000000003 -30.432000000000002 223.776 -30.432000000000002H238.27200000000002L237.40800000000002 -21.984H223.104Q220.512 -21.984 218.496 -21.504Q216.48000000000002 -21.024 215.04000000000002 -20.064Q213.60000000000002 -19.104 212.928 -17.808Q212.256 -16.512 212.256 -14.688Q212.256 -12.768 213.216 -11.376000000000001Q214.17600000000002 -9.984 215.808 -9.216000000000001Q217.44 -8.448 219.64800000000002 -8.448Q222.816 -8.448 225.64800000000002 -9.504000000000001Q228.48000000000002 -10.56 230.68800000000002 -12.48Q232.89600000000002 -14.4 234.144 -16.8L236.544 -10.272Q234.52800000000002 -6.912 231.60000000000002 -4.416Q228.67200000000003 -1.92 225.264 -0.48Q221.85600000000002 0.96 218.20800000000003 0.96Z M254.11200000000002 0.0V-50.592H265.536L265.728 -40.224000000000004L263.52000000000004 -39.072Q264.576 -42.432 267.312 -45.264Q270.048 -48.096000000000004 273.88800000000003 -49.872Q277.728 -51.648 281.856 -51.648Q287.61600000000004 -51.648 291.504 -49.344Q295.392 -47.04 297.312 -42.432Q299.232 -37.824 299.232 -30.912V0.0H287.52000000000004V-30.048000000000002Q287.52000000000004 -33.984 286.46400000000006 -36.528000000000006Q285.408 -39.072 283.20000000000005 -40.272000000000006Q280.992 -41.472 277.824 -41.28Q275.232 -41.28 273.024 -40.464Q270.81600000000003 -39.648 269.232 -38.160000000000004Q267.648 -36.672000000000004 266.736 -34.70400000000001Q265.824 -32.736000000000004 265.824 -30.432000000000002V0.0H259.968Q258.336 0.0 256.848 0.0Q255.36 0.0 254.11200000000002 0.0Z"/></g>
</svg>
